<?xml version="1.0" standalone="no"?><!DOCTYPE svg PUBLIC "-//W3C//DTD SVG 1.1//EN" "http://www.w3.org/Graphics/SVG/1.1/DTD/svg11.dtd"><svg t="1728207260868" class="icon" viewBox="0 0 1024 1024" version="1.1" xmlns="http://www.w3.org/2000/svg" p-id="28619" xmlns:xlink="http://www.w3.org/1999/xlink" width="32" height="32"><path d="M720 592c-60.8 0-112 51.2-112 112s51.2 112 112 112 112-51.2 112-112c0-28.8-12.8-57.6-32-80-22.4-19.2-51.2-32-80-32z m0 160c-25.6 0-48-22.4-48-48s22.4-48 48-48c12.8 0 25.6 6.4 35.2 12.8S768 691.2 768 704c0 25.6-22.4 48-48 48z" fill="#333333" p-id="28620"></path><path d="M947.2 649.6c-25.6-6.4-44.8-22.4-57.6-41.6-12.8-22.4-16-48-9.6-70.4 0-3.2 0-9.6-3.2-12.8-22.4-19.2-48-35.2-76.8-44.8-3.2 0-9.6 0-12.8 3.2-16 19.2-41.6 28.8-67.2 28.8s-48-9.6-67.2-28.8c-3.2-3.2-9.6-3.2-12.8-3.2-28.8 9.6-54.4 25.6-76.8 44.8-3.2 3.2-6.4 6.4-3.2 12.8 6.4 22.4 3.2 48-9.6 70.4-12.8 22.4-35.2 38.4-57.6 41.6-3.2 0-6.4 3.2-9.6 9.6-6.4 28.8-6.4 57.6 0 89.6 0 3.2 3.2 6.4 9.6 9.6 25.6 6.4 44.8 19.2 57.6 41.6 12.8 22.4 16 48 9.6 70.4 0 3.2 0 9.6 3.2 12.8 22.4 19.2 48 35.2 76.8 44.8h3.2c3.2 0 6.4 0 9.6-3.2 16-19.2 41.6-28.8 67.2-28.8s48 9.6 67.2 28.8c3.2 3.2 6.4 3.2 12.8 3.2 28.8-9.6 54.4-25.6 76.8-44.8 3.2-3.2 6.4-6.4 3.2-12.8-9.6-22.4-6.4-51.2 6.4-70.4 12.8-22.4 35.2-38.4 57.6-41.6 3.2 0 6.4-3.2 9.6-9.6 6.4-28.8 6.4-57.6 0-89.6 0-3.2-3.2-6.4-6.4-9.6z m-54.4 80c-22.4 6.4-41.6 22.4-54.4 41.6-12.8 19.2-16 44.8-9.6 64-12.8 12.8-28.8 19.2-48 25.6-16-16-38.4-25.6-64-25.6-22.4 0-44.8 9.6-64 25.6-16-6.4-32-16-48-25.6 6.4-22.4 3.2-44.8-9.6-64-12.8-19.2-32-35.2-54.4-41.6-3.2-19.2-3.2-35.2 0-54.4 22.4-6.4 41.6-22.4 54.4-41.6 12.8-19.2 16-44.8 9.6-64 12.8-12.8 28.8-19.2 48-25.6 16 16 38.4 25.6 64 25.6 22.4 0 44.8-9.6 64-25.6 16 6.4 32 16 48 25.6-6.4 22.4-3.2 44.8 9.6 64 12.8 19.2 32 35.2 54.4 41.6 3.2 19.2 3.2 38.4 0 54.4zM160 768h64c0-105.6 86.4-192 192-192 28.8 0 57.6 6.4 83.2 19.2C512 576 524.8 560 540.8 544c-6.4-3.2-12.8-6.4-16-9.6 32-28.8 54.4-70.4 54.4-118.4 0-89.6-70.4-160-160-160s-160 70.4-160 160c0 48 19.2 89.6 54.4 118.4C220.8 576 160 665.6 160 768z m256-448c54.4 0 96 41.6 96 96s-41.6 96-96 96-96-41.6-96-96 41.6-96 96-96z" fill="#333333" p-id="28621"></path><path d="M896 96H128c-35.2 0-64 28.8-64 64v640c0 35.2 28.8 64 64 64h336c-6.4-19.2-9.6-41.6-12.8-64H160c-19.2 0-32-16-32-32V192c0-16 12.8-32 32-32h704c19.2 0 32 16 32 32v281.6c22.4 9.6 44.8 22.4 64 38.4V160c0-35.2-28.8-64-64-64z" fill="#333333" p-id="28622"></path><path d="M672 320h160c19.2 0 32-12.8 32-32s-12.8-32-32-32H672c-19.2 0-32 12.8-32 32s12.8 32 32 32z m0 128h96c19.2 0 32-12.8 32-32s-12.8-32-32-32h-96c-19.2 0-32 12.8-32 32s12.8 32 32 32z" fill="#333333" p-id="28623"></path></svg>