<?xml version="1.0" encoding="UTF-8"?>
<svg width="21px" height="14px" viewBox="0 0 21 14" version="1.1" xmlns="http://www.w3.org/2000/svg" xmlns:xlink="http://www.w3.org/1999/xlink">
    <!-- Generator: Sketch 63.1 (92452) - https://sketch.com -->
    <title>返回</title>
    <desc>Created with Sketch.</desc>
    <g id="页面-1" stroke="none" stroke-width="1" fill="none" fill-rule="evenodd">
        <g id="Strategy-详情" transform="translate(-129.000000, -132.000000)" fill="#FFFFFF" fill-rule="nonzero" stroke="#FFFFFF" stroke-width="0.2">
            <g id="导航2" transform="translate(0.000000, 100.000000)">
                <g id="编组-5" transform="translate(130.000000, 30.000000)">
                    <g id="返回" transform="translate(0.000000, 3.000000)">
                        <path d="M2.65279908,5.44881135 L19.1957439,5.44881135 C19.4697206,5.44881134 19.7228855,5.59497615 19.8598738,5.83224692 C19.9968621,6.06951769 19.9968621,6.36184734 19.8598738,6.59911811 C19.7228855,6.83638888 19.4697206,6.98255369 19.1957439,6.98255368 L2.65893405,6.98255368 L6.7693635,11.0929831 C7.0692236,11.3924197 7.06956693,11.8782457 6.77013034,12.1781058 C6.47069376,12.4779659 5.9848678,12.4783093 5.68500767,12.1788727 L0.35065184,6.84451687 C0.149523857,6.70369378 0.0279857353,6.47508011 0.0236223354,6.22958966 C0.019489156,5.98409921 0.13304441,5.75141718 0.329179448,5.60371933 L5.68347393,0.247891104 C5.87744941,0.0541895836 6.16002869,-0.0213133097 6.42476687,0.0498236342 C6.68950505,0.120960578 6.89618211,0.327929965 6.96694479,0.592768428 C7.03770748,0.85760689 6.96180525,1.14007916 6.76782975,1.33378067 L2.65279908,5.44881135 Z" id="路径"></path>
                    </g>
                </g>
            </g>
        </g>
    </g>
</svg>