<?xml version="1.0" encoding="UTF-8"?>
<svg width="246px" height="90px" viewBox="0 0 246 90" version="1.1" xmlns="http://www.w3.org/2000/svg" xmlns:xlink="http://www.w3.org/1999/xlink">
    <!-- Generator: Sketch 63.1 (92452) - https://sketch.com -->
    <title>2</title>
    <desc>Created with Sketch.</desc>
    <defs>
        <rect id="path-1" x="0" y="0" width="246" height="90"></rect>
    </defs>
    <g id="页面-1" stroke="none" stroke-width="1" fill="none" fill-rule="evenodd">
        <g id="首页" transform="translate(-441.000000, -3367.000000)">
            <g id="编组-8" transform="translate(50.000000, 3187.000000)">
                <g id="2" transform="translate(391.000000, 180.000000)">
                    <mask id="mask-2" fill="white">
                        <use xlink:href="#path-1"></use>
                    </mask>
                    <use id="Rectangle" fill="#FFFFFF" xlink:href="#path-1"></use>
                    <g id="12-01" mask="url(#mask-2)" fill="#F0B90B" fill-rule="nonzero">
                        <g transform="translate(28.000000, 25.000000)" id="形状">
                            <path d="M8.7588838,19.8471392 L4.29006558,24.3159575 L0,19.8471392 L4.46881829,15.3783209 L8.7588838,19.8471392 Z M19.4840477,8.94322256 L26.9916624,16.62959 L31.4604807,12.1607717 L23.9528659,4.47440427 L19.4840477,0.00558604728 L15.0152294,4.47440427 L7.50761467,12.1607717 L11.976433,16.62959 L19.4840477,8.94322256 Z M34.4992771,15.3783209 L30.0304588,19.8471392 L34.4992771,24.3159575 L38.9680953,19.8471392 L34.4992771,15.3783209 Z M19.4840477,30.572303 L11.976433,23.0646883 L7.50761467,27.5335066 L15.0152294,35.0411213 L19.4840477,39.5099396 L23.9528659,35.0411213 L31.4604807,27.5335066 L26.9916624,23.0646883 L19.4840477,30.572303 Z M19.4840477,24.1372047 L23.9528659,19.6683865 L19.4840477,15.1995682 L15.0152294,19.6683865 L19.4840477,24.1372047 Z M64.3509832,24.3159575 C64.3509832,28.2485175 61.3121867,30.2147976 56.485863,30.2147976 L46.4757101,30.2147976 L46.4757101,8.76446984 L56.1283575,8.76446984 C60.4184231,8.76446984 63.099714,10.9095026 63.099714,14.3058045 C63.099714,16.62959 61.8484449,18.0596118 60.4184231,18.9533755 C62.9209613,20.0258919 64.3509832,21.4559137 64.3509832,24.3159575 L64.3509832,24.3159575 Z M55.4133466,17.5233536 C57.3796266,17.5233536 58.8096485,16.8083427 58.8096485,15.1995682 C58.8096485,13.7695463 57.7371321,13.0545354 55.7708521,13.0545354 L51.3020338,13.0545354 L51.3020338,17.5233536 L55.4133466,17.5233536 Z M56.6646157,26.1034847 C58.6308958,26.1034847 59.8821649,25.3884738 59.8821649,23.7796993 C59.8821649,22.3496774 58.8096485,21.4559137 56.485863,21.4559137 L51.1232811,21.4559137 L51.1232811,26.1034847 L56.6646157,26.1034847 Z M74.0036307,8.94322256 L74.0036307,30.2147976 L69.3560597,30.2147976 L69.3560597,8.94322256 L74.0036307,8.94322256 Z M98.8502603,8.94322256 L98.8502603,30.2147976 L94.9177002,30.2147976 L84.7287945,16.62959 L84.7287945,30.2147976 L80.2599762,30.2147976 L80.2599762,8.94322256 L84.5500418,8.94322256 L94.381442,22.1709246 L94.381442,8.94322256 L98.8502603,8.94322256 Z M115.295512,8.76446984 L124.233148,30.2147976 L119.406824,30.2147976 L117.440544,25.3884738 L108.68166,25.3884738 L106.71538,30.2147976 L102.067809,30.2147976 L111.005446,8.76446984 L115.295512,8.76446984 Z M110.290435,21.277161 L115.83177,21.277161 L113.150479,14.3058045 L110.290435,21.277161 L110.290435,21.277161 Z M146.040981,8.94322256 L146.040981,30.2147976 L142.108421,30.2147976 L131.919515,16.62959 L131.919515,30.2147976 L127.450697,30.2147976 L127.450697,8.94322256 L131.740763,8.94322256 L141.572163,22.1709246 L141.572163,8.94322256 L146.040981,8.94322256 Z M166.955051,23.7796993 L169.815094,26.8184956 C167.670062,29.1422812 165.346276,30.572303 161.234963,30.572303 C155.157371,30.572303 150.5098,25.7459793 150.5098,19.4896337 C150.5098,13.4120408 154.978618,8.40696435 161.413716,8.40696435 C165.346276,8.40696435 167.670062,9.83698619 169.636342,11.8032663 L166.776298,15.1995682 C165.167523,13.7695463 163.558749,12.8757826 161.413716,12.8757826 C157.838662,12.8757826 155.336123,15.9145791 155.336123,19.4896337 C155.336123,23.0646883 157.838662,26.1034847 161.413716,26.1034847 C163.916254,26.2822374 165.346276,25.2097211 166.955051,23.7796993 Z M189.477895,26.1034847 L189.477895,30.2147976 L173.568902,30.2147976 L173.568902,8.76446984 L189.299142,8.76446984 L189.299142,12.8757826 L178.03772,12.8757826 L178.03772,17.1658482 L187.86912,17.1658482 L187.86912,21.277161 L178.03772,21.277161 L178.03772,25.7459793 L189.477895,26.1034847 L189.477895,26.1034847 Z"></path>
                        </g>
                    </g>
                </g>
            </g>
        </g>
    </g>
</svg>