<?xml version="1.0" encoding="UTF-8"?>
<svg width="32px" height="32px" viewBox="0 0 32 32" version="1.1" xmlns="http://www.w3.org/2000/svg" xmlns:xlink="http://www.w3.org/1999/xlink">
    <!-- Generator: Sketch 63.1 (92452) - https://sketch.com -->
    <title>discord</title>
    <desc>Created with Sketch.</desc>
    <g id="页面-1" stroke="none" stroke-width="1" fill="none" fill-rule="evenodd">
        <g id="首页" transform="translate(-1187.000000, -3907.000000)" fill-rule="nonzero">
            <g id="编组-12" transform="translate(50.000000, 3903.000000)">
                <g id="编组-7">
                    <g id="discord" transform="translate(1137.000000, 4.000000)">
                        <path d="M0,16 C0,24.836556 7.163444,32 16,32 C24.836556,32 32,24.836556 32,16 C32,7.163444 24.836556,0 16,0 C7.163444,0 0,7.163444 0,16 Z" id="路径" fill="#E7E7E7"></path>
                        <path d="M16,9.38665625 C12.4266563,9.38665625 9.92,10.92 9.92,10.92 C11.2933438,9.69334375 13.6933438,8.98665625 13.6933438,8.98665625 L13.4666563,8.76 C11.2133438,8.8 9.17334375,10.36 9.17334375,10.36 C6.88,15.1466562 7.02665625,19.28 7.02665625,19.28 C8.89334375,21.6933437 11.6666563,21.52 11.6666563,21.52 L12.6133438,20.32 C10.9466563,19.96 9.89334375,18.48 9.89334375,18.48 C9.89334375,18.48 12.4,20.1866562 16,20.1866562 C19.6,20.1866562 22.1066563,18.48 22.1066563,18.48 C22.1066563,18.48 21.0533438,19.96 19.3866563,20.32 L20.3333438,21.52 C20.3333438,21.52 23.1066563,21.6933437 24.9733438,19.28 C24.9733438,19.28 25.12,15.1466562 22.8266563,10.36 C22.8266563,10.36 20.7866563,8.8 18.5333438,8.76 L18.3066563,8.98665625 C18.3066563,8.98665625 20.7066563,9.69334375 22.08,10.92 C22.08,10.92 19.5733438,9.38665625 16,9.38665625 M13.24,14.44 C14.1066562,14.44 14.8133437,15.2 14.8,16.1333437 C14.8,17.0533437 14.1066562,17.8266562 13.24,17.8266562 C12.3866562,17.8266562 11.6933437,17.0533437 11.6933437,16.1333437 C11.6933437,15.2 12.3733437,14.44 13.24,14.44 M18.8,14.44 C19.6666562,14.44 20.36,15.2 20.36,16.1333437 C20.36,17.0533437 19.6666562,17.8266562 18.8,17.8266562 C17.9466562,17.8266562 17.2533437,17.0533437 17.2533437,16.1333437 C17.2533437,15.2 17.9333437,14.44 18.8,14.44 Z" id="形状" fill="#06060B"></path>
                    </g>
                </g>
            </g>
        </g>
    </g>
</svg>