<?xml version="1.0" standalone="no"?><!DOCTYPE svg PUBLIC "-//W3C//DTD SVG 1.1//EN" "http://www.w3.org/Graphics/SVG/1.1/DTD/svg11.dtd"><svg t="1728206131541" class="icon" viewBox="0 0 1024 1024" version="1.1" xmlns="http://www.w3.org/2000/svg" p-id="11955" xmlns:xlink="http://www.w3.org/1999/xlink" width="32" height="32"><path d="M869.7 520.6c-6.4 0-12.6 2.5-17.1 7.1-4.5 4.5-7.1 10.7-7.1 17.1 0 218.4-175.4 391.3-391.3 391.3-215.7 0-391.3-175.4-391.3-391.3s175.8-391.1 391.6-391.1c13.4 0 24.2-10.7 24.2-24.2s-10.7-24.2-24.2-24.2C212 105.3 14.9 302.5 14.9 544.8c0 242.4 197.1 439.5 439.5 439.5s439.5-197.1 439.5-439.5c0-13.3-10.8-24.1-24.2-24.2z m0 0" fill="" p-id="11956"></path><path d="M454.4 992.4C207.7 992.4 6.9 791.6 6.9 544.8c0-246.7 200.8-447.5 447.5-447.5 17.8 0 32.2 14.4 32.2 32.2 0 17.8-14.4 32.2-32.2 32.2-211.5 0-383.6 171.9-383.6 383.1 0 211.4 172 383.3 383.3 383.3 211.4 0 383.3-172 383.3-383.3 0-8.6 3.3-16.7 9.4-22.8 6.1-6.1 14.1-9.4 22.7-9.4h0.1c17.7 0 32.1 14.5 32.2 32.2 0.1 246.8-200.6 447.6-447.4 447.6z m0-879.1c-237.9 0-431.5 193.6-431.5 431.5s193.6 431.5 431.5 431.5 431.5-193.6 431.5-431.5c0-8.9-7.3-16.2-16.2-16.2-4.3 0-8.4 1.7-11.4 4.7-3.1 3.1-4.7 7.1-4.7 11.5 0 107.5-41.6 208.1-117 283.3-36.6 36.5-79.3 65.1-126.9 85-49.2 20.6-101.4 31.1-155.3 31.1C234 944.2 54.9 765 54.9 544.8c0-220.1 179.2-399.1 399.6-399.1 9.1 0 16.2-7.1 16.2-16.2-0.1-9.1-7.2-16.2-16.3-16.2z" fill="" p-id="11957"></path><path d="M623.3 17.5c-6.4 0-12.6 2.5-17.1 7.1-4.5 4.5-7.1 10.7-7.1 17.1v359.5c0 6.4 2.5 12.6 7.1 17.1 4.5 4.5 10.7 7.1 17.1 7.1h359.5c6.4 0 12.6-2.5 17.1-7.1 4.5-4.5 7.1-10.7 7.1-17.1 0-211.6-172.2-383.7-383.7-383.7zM647.5 377V66.6C813.2 78.4 946.1 211.3 958 377H647.5zM378 346.1c-4.9-8-15-11.1-23.5-7.2-10.1 4.9-13.4 15.7-8.3 24l76.4 147.9h-74.1c-9.5 0.1-17.2 7.8-17.3 17.3 0 11.6 7.8 19.1 17.3 19.1H436V603h-87.6c-4.7 0.1-9.1 2-12.4 5.4-3.2 3.4-5 7.9-4.9 12.6 0 10.5 7.8 19 17.3 19H436v64.8c0 9.4 7.8 17.9 17.9 17.9 4.8 0.2 9.6-1.6 13-5 3.5-3.4 5.4-8.1 5.3-12.9v-65h87.6c9.8-0.3 17.6-8.1 17.9-17.9 0-11.2-8.3-19.1-17.9-19.1h-87.6V547h87.6c9.4 0 17.9-7.2 17.9-17.9s-8.3-18.4-17.9-18.4h-73L563.3 362c2.3-4.1 2.7-9 1.2-13.5-1.5-4.5-5-7.7-9.1-10-8.7-4.9-19.5-1.6-24 6.7l-76.4 149-77-148.1z m0 0" fill="" p-id="11958"></path><path d="M454.6 730.5h-0.8c-14-0.1-25.8-11.9-25.8-25.9v-56.8h-79.6c-13.9 0-25.2-12.1-25.3-27-0.1-6.7 2.5-13.3 7.2-18.2 4.7-4.9 11.1-7.7 18-7.8H428V555h-79.6c-14.4 0-25.3-11.6-25.3-27 0.1-13.8 11.4-25.1 25.2-25.3h61.1l-70.2-135.9c-3.4-5.7-4.3-12.4-2.5-18.8 2-7 7.1-12.8 14.2-16.3l0.1-0.1c12.2-5.7 26.7-1.3 33.7 10.3l0.3 0.4 70 134.4 69.4-135.3c3.2-5.9 8.6-10.2 15.2-12.1 6.6-1.9 13.6-1.1 19.7 2.3 6.4 3.5 10.8 8.6 12.8 14.5 2.2 6.5 1.5 13.7-1.8 19.7L500 502.6h59.9c14.5 0 25.9 11.6 25.9 26.4 0 14.5-11.4 25.9-25.9 25.9h-79.6v39.8h79.6c14.5 0 25.9 11.9 25.9 27.1v0.2c-0.4 14-11.7 25.3-25.7 25.7h-79.8v56.9c0.1 7-2.7 13.8-7.7 18.7-4.8 4.6-11.3 7.2-18 7.2zM348.5 610.9c-2.5 0.1-4.9 1.1-6.7 2.9-1.8 1.8-2.7 4.3-2.7 6.8v0.2c0 6 4.2 11 9.3 11H444v72.8c0 4.7 4.1 9.9 9.9 9.9h0.3c2.6 0.1 5.2-0.9 7.1-2.7 1.9-1.8 3-4.4 2.9-7.1v-73.1h95.4c5.5-0.2 9.8-4.6 10.1-10-0.1-7.1-5.1-10.9-9.9-10.9h-95.6v-71.8h95.6c4.8 0 9.9-3.5 9.9-9.9 0-6.7-5.1-10.4-9.9-10.4h-86.1l82.5-160.4c1.2-2.2 1.4-4.7 0.6-7.1-0.7-2.1-2.5-4-5.4-5.6-2.3-1.3-5-1.6-7.5-0.9-2.4 0.7-4.4 2.2-5.5 4.3L455 511.5 371 350c-2.8-4.4-8.4-6.1-13.1-3.9-3 1.5-5 3.7-5.8 6.4-0.6 2.1-0.3 4.3 0.9 6.2l0.3 0.5 82.4 159.5h-87.3c-5 0-9.2 4.2-9.3 9.3 0 6.5 3.7 11 9.3 11H444v71.8h-95.5z m634.4-177.4H623.3h-0.1c-8.4 0-16.7-3.4-22.7-9.4s-9.4-14.3-9.4-22.8V41.7c0-8.5 3.4-16.8 9.4-22.8s14.3-9.4 22.7-9.4h0.1c216 0 391.7 175.8 391.7 391.8 0 8.5-3.4 16.8-9.4 22.8-5.9 6-14.2 9.4-22.7 9.4z m-359.7-408c-4.2 0-8.4 1.7-11.4 4.7s-4.7 7.2-4.7 11.5v359.6c0 4.3 1.7 8.5 4.7 11.5s7.2 4.7 11.4 4.7h359.6c4.3 0.1 8.5-1.7 11.5-4.7s4.7-7.2 4.7-11.5c0-207.2-168.5-375.8-375.8-375.8 0.1 0 0.1 0 0 0zM966.5 385h-327V58l8.6 0.6c82.1 5.9 159.5 41.3 218 99.9 58.5 58.5 94 135.9 99.9 218l0.5 8.5z m-311-16h293.8C934.1 214.6 809.9 90.5 655.5 75.3V369z" fill="" p-id="11959"></path></svg>