<?xml version="1.0" encoding="UTF-8"?>
<svg width="17px" height="17px" viewBox="0 0 17 17" version="1.1" xmlns="http://www.w3.org/2000/svg" xmlns:xlink="http://www.w3.org/1999/xlink">
    <!-- Generator: Sketch 63.1 (92452) - https://sketch.com -->
    <title>edit</title>
    <desc>Created with Sketch.</desc>
    <g id="页面-1" stroke="none" stroke-width="1" fill="none" fill-rule="evenodd">
        <g id="交易所" transform="translate(-1238.000000, -302.000000)" fill="#202020" fill-rule="nonzero">
            <g id="编组-6" transform="translate(230.000000, 130.000000)">
                <g id="tbl" transform="translate(40.000000, 105.000000)">
                    <g id="编组" transform="translate(35.000000, 67.000000)">
                        <g id="edit" transform="translate(933.000000, 0.000000)">
                            <path d="M14.875,5.88160156 L14.875,14.875 C14.875,16.0485312 13.9235312,17 12.75,17 L2.125,17 C0.95146875,17 0,16.0485312 0,14.875 L0,4.25 C0,3.07646875 0.95146875,2.125 2.125,2.125 L11.1178672,2.125 L8.99389648,4.25 L2.125,4.25 L2.125,14.875 L12.75,14.875 L12.75,8.00713281 L14.875,5.88160156 Z M13.2438965,1.50244141 L12.4926758,2.25366211 L14.7463379,4.50785547 L15.4975586,3.75663477 L13.2438965,1.50244141 Z M14.7463379,0 L13.9951172,0.751220703 L16.2487793,3.00541406 L17,2.25366211 L14.7463379,0 Z M4.98046875,9.76796094 L7.23413086,12.021623 L13.9951172,5.25957422 L11.7414551,3.00538086 L4.98046875,9.76796094 Z M4.25,12.75 L6.375,12.75 L4.25,10.625 L4.25,12.75 Z" id="Shape"></path>
                        </g>
                    </g>
                </g>
            </g>
        </g>
    </g>
</svg>