<?xml version="1.0" standalone="no"?><!DOCTYPE svg PUBLIC "-//W3C//DTD SVG 1.1//EN" "http://www.w3.org/Graphics/SVG/1.1/DTD/svg11.dtd"><svg t="1728206226602" class="icon" viewBox="0 0 1024 1024" version="1.1" xmlns="http://www.w3.org/2000/svg" p-id="13048" xmlns:xlink="http://www.w3.org/1999/xlink" width="32" height="32"><path d="M856.868571 877.714286a40.96 40.96 0 0 1 6.582858 81.408l-6.582858 0.512H170.276571a40.96 40.96 0 0 1-6.582857-81.408l6.582857-0.512h686.592zM739.035429 233.472a40.96 40.96 0 0 1 64.585142 49.810286l-4.461714 5.851428-209.188571 225.865143a40.96 40.96 0 0 1-50.468572 7.606857l-5.851428-4.096L395.702857 402.870857 250.002286 573.44a40.96 40.96 0 0 1-51.712 8.850286l-6.070857-4.242286a40.96 40.96 0 0 1-8.777143-51.785143l4.242285-5.997714L359.862857 318.829714a40.96 40.96 0 0 1 51.419429-8.996571l5.997714 4.169143 139.190857 116.662857 182.637714-197.193143z" fill="#333333" p-id="13049"></path></svg>