<?xml version="1.0" encoding="UTF-8"?>
<svg width="32px" height="32px" viewBox="0 0 32 32" version="1.1" xmlns="http://www.w3.org/2000/svg" xmlns:xlink="http://www.w3.org/1999/xlink">
    <!-- Generator: Sketch 63.1 (92452) - https://sketch.com -->
    <title>telegram</title>
    <desc>Created with Sketch.</desc>
    <g id="页面-1" stroke="none" stroke-width="1" fill="none" fill-rule="evenodd">
        <g id="首页" transform="translate(-1358.000000, -3948.000000)" fill-rule="nonzero">
            <g id="编组-7" transform="translate(1187.000000, 3948.000000)">
                <g id="telegram" transform="translate(171.000000, 0.000000)">
                    <path d="M32,16 C32,24.8388438 24.8388437,32 16,32 C7.16115625,32 0,24.8388437 0,16 C0,7.16115625 7.16115625,0 16,0 C24.8388437,0 32,7.16115625 32,16 Z" id="路径" fill="#798CFD"></path>
                    <path d="M16,7.31428571 C11.2011429,7.31428571 7.31428571,11.2033143 7.31428571,16 C7.31428571,19.8383619 9.80274286,23.0933333 13.2531429,24.2405714 C13.6874286,24.3223619 13.8466667,24.0538286 13.8466667,23.8229333 C13.8466667,23.6166476 13.8394286,23.0701714 13.8358095,22.3463619 C11.4197333,22.8704 10.9101714,21.1810286 10.9101714,21.1810286 C10.5149714,20.1785524 9.94388571,19.9107429 9.94388571,19.9107429 C9.15710476,19.3722286 10.0046857,19.3830857 10.0046857,19.3830857 C10.8768762,19.4438857 11.3350476,20.2777143 11.3350476,20.2777143 C12.1095238,21.6059048 13.3682286,21.2222857 13.8647619,21.0000762 C13.9429333,20.4384 14.1665905,20.0555048 14.4148571,19.8383619 C12.4859048,19.621219 10.4585143,18.8742476 10.4585143,15.5461714 C10.4585143,14.597981 10.7950857,13.8235048 11.352419,13.2155048 C11.2547048,12.9961905 10.9615619,12.1131429 11.428419,10.9166857 C11.428419,10.9166857 12.1558476,10.683619 13.8169905,11.8069714 C14.5118476,11.6137143 15.2501333,11.5181714 15.988419,11.5138286 C16.7267048,11.5181714 17.4649905,11.6137143 18.1598476,11.8069714 C19.8101333,10.683619 20.5375619,10.9166857 20.5375619,10.9166857 C21.004419,12.1131429 20.7112762,12.9961905 20.624419,13.2155048 C21.1781333,13.8235048 21.5147048,14.5979809 21.5147048,15.5461714 C21.5147048,18.8829333 19.484419,19.6176 17.5518476,19.8311238 C17.8558476,20.0916952 18.1381333,20.6244191 18.1381333,21.437981 C18.1381333,22.6004191 18.1272762,23.5341333 18.1272762,23.816419 C18.1272762,24.044419 18.2792762,24.3158476 18.724419,24.2289905 C22.1994286,23.0897143 24.6857143,19.8325714 24.6857143,16 C24.6857143,11.2033143 20.7966857,7.31428571 16,7.31428571" id="路径" fill="#FFFFFF"></path>
                </g>
            </g>
        </g>
    </g>
</svg>