<?xml version="1.0" encoding="UTF-8"?>
<svg width="180px" height="36px" viewBox="0 0 180 36" version="1.1" xmlns="http://www.w3.org/2000/svg" xmlns:xlink="http://www.w3.org/1999/xlink">
    <!-- Generator: Sketch 63.1 (92452) - https://sketch.com -->
    <title>编组 3</title>
    <desc>Created with Sketch.</desc>
    <defs>
        <radialGradient cx="35.4300363%" cy="25.7112736%" fx="35.4300363%" fy="25.7112736%" r="74.0638602%" id="radialGradient-1">
            <stop stop-color="#565656" offset="0%"></stop>
            <stop stop-color="#000000" offset="100%"></stop>
        </radialGradient>
    </defs>
    <g id="页面-1" stroke="none" stroke-width="1" fill="none" fill-rule="evenodd">
        <g id="首页" transform="translate(-52.000000, -14.000000)">
            <g id="topbar">
                <g id="编组-3" transform="translate(52.000000, 14.000000)">
                    <path d="M46.6312235,24.6830983 C47.7711819,24.6830983 48.7581458,24.3591102 49.5921154,23.7111338 C50.4020858,23.0571577 50.9510657,22.1211919 51.2390552,20.9032364 L51.2390552,20.9032364 L49.1331321,20.9032364 C48.5811523,22.0971928 47.7471828,22.694171 46.6312235,22.694171 C46.1632406,22.694171 45.7612553,22.5951746 45.4252676,22.3971818 C45.0832801,22.229188 44.8072901,22.010196 44.5972978,21.7402058 C44.3393072,21.4582161 44.1683135,21.0892296 44.0843166,20.6332463 C43.9883201,20.1772629 43.9403218,19.3042948 43.9403218,18.0143419 C43.9403218,16.7243891 43.9883201,15.8454212 44.0843166,15.3774383 C44.1683135,14.9334545 44.3393072,14.5704677 44.5972978,14.288478 C44.8072901,14.0184879 45.0832801,13.7934961 45.4252676,13.6135027 C45.7612553,13.4395091 46.1632406,13.3465125 46.6312235,13.3345129 C47.2672003,13.3465125 47.8071806,13.5295058 48.2511643,13.8834928 C48.6771488,14.2554793 48.971138,14.7054628 49.1331321,15.2334435 L49.1331321,15.2334435 L51.2390552,15.2334435 C51.0290629,14.1354836 50.5250813,13.2145173 49.7271104,12.4705445 C48.9291396,11.7325714 47.8971773,11.3575851 46.6312235,11.3455855 C45.5992612,11.3575851 44.7382927,11.6035761 44.0483179,12.0835586 C43.3463435,12.5575413 42.8363621,13.0975216 42.5183738,13.7034994 C42.320381,14.0214878 42.1733864,14.4384726 42.0773899,14.9544537 C41.9873932,15.4704349 41.9423948,16.4903976 41.9423948,18.0143419 C41.9423948,19.5142871 41.9873932,20.5282501 42.0773899,21.0562308 C42.1253881,21.3382205 42.1853859,21.572212 42.2573833,21.7582052 C42.3353804,21.9381986 42.4223773,22.1271917 42.5183738,22.3251845 C42.8363621,22.9311623 43.3463435,23.4651428 44.0483179,23.9271259 C44.7382927,24.4071084 45.5992612,24.6590992 46.6312235,24.6830983 Z M54.6319313,24.5751023 L54.6319313,18.9683071 L57.1698385,18.9683071 L59.8787396,24.5751023 L62.2456531,24.5751023 L59.2037642,18.752315 C60.8717033,18.1103384 61.7176724,16.8983827 61.7416715,15.1164478 C61.7056729,13.9044921 61.2706887,12.9715262 60.4367192,12.31755 C59.7467444,11.7415711 58.855777,11.4535816 57.7638168,11.4535816 L57.7638168,11.4535816 L52.6430039,11.4535816 L52.6430039,24.5751023 L54.6319313,24.5751023 Z M57.6378214,17.2043715 L54.6319313,17.2043715 L54.6319313,13.2265168 L57.7458175,13.2265168 C58.3817943,13.2265168 58.8677765,13.3615119 59.2037642,13.631502 C59.6297487,13.9374909 59.8487407,14.4324728 59.8607402,15.1164478 C59.8607402,15.686427 59.6777469,16.1664094 59.3117603,16.5563952 C58.9397739,16.9763799 58.3817943,17.192372 57.6378214,17.2043715 L57.6378214,17.2043715 Z M72.2622872,24.5751023 L72.2622872,22.694171 L65.8725206,22.694171 L65.8725206,18.8423117 L71.3263214,18.8423117 L71.3263214,17.0783761 L65.8725206,17.0783761 L65.8725206,13.3345129 L72.2622872,13.3345129 L72.2622872,11.4535816 L63.8835933,11.4535816 L63.8835933,24.5751023 L72.2622872,24.5751023 Z M78.0040775,24.6830983 C81.0099677,24.6470996 82.5459116,23.3751461 82.6119092,20.8672377 C82.6119092,19.9372717 82.3209198,19.1213015 81.738941,18.4193271 C81.1509625,17.7053532 80.2419957,17.2643693 79.0120407,17.0963755 C78.3880634,17.0183783 77.8960814,16.9493808 77.5360946,16.889383 C76.8881182,16.7693874 76.4171354,16.5533953 76.1231462,16.2414067 C75.8291569,15.9354179 75.6821623,15.5934304 75.6821623,15.2154442 C75.6941619,14.5854672 75.9131539,14.1114845 76.3391383,13.7934961 C76.7471234,13.4875073 77.2571048,13.3345129 77.8690824,13.3345129 C79.0510392,13.358512 80.1339997,13.6944997 81.1179637,14.3424761 L81.1179637,14.3424761 L82.2249233,12.7045359 C81.0189673,11.8345677 79.6000192,11.3815842 77.9680788,11.3455855 C76.6121283,11.3575851 75.5651666,11.7115722 74.8271935,12.4075468 C74.0652214,13.1095211 73.6842353,14.0334874 73.6842353,15.1794455 C73.6842353,16.1334107 73.9872242,16.9433811 74.5932021,17.6093567 C75.1811806,18.2573331 76.0391493,18.6743178 77.1671081,18.860311 C77.797085,18.9503078 78.3760639,19.0313048 78.9040446,19.1033022 C80.0560025,19.3012949 80.6259817,19.8892735 80.6139821,20.8672377 C80.589983,22.0611941 79.7260146,22.6701719 78.0220768,22.694171 C76.5821294,22.6821714 75.3401748,22.2471873 74.2962129,21.3892187 L74.2962129,21.3892187 L72.9912606,22.8831641 C74.3892095,24.0831203 76.0601485,24.6830983 78.0040775,24.6830983 Z M88.9296784,24.5751023 L88.9296784,13.2265168 L92.5205472,13.2265168 L92.5205472,11.4535816 L83.3408825,11.4535816 L83.3408825,13.2265168 L86.9317514,13.2265168 L86.9317514,24.5751023 L88.9296784,24.5751023 Z M102.213193,24.6830983 C105.219083,24.6470996 106.755027,23.3751461 106.821025,20.8672377 C106.821025,19.9372717 106.530035,19.1213015 105.948057,18.4193271 C105.360078,17.7053532 104.451111,17.2643693 103.221156,17.0963755 C102.597179,17.0183783 102.105197,16.9493808 101.74521,16.889383 C101.097234,16.7693874 100.626251,16.5533953 100.332262,16.2414067 C100.038273,15.9354179 99.8912779,15.5934304 99.8912779,15.2154442 C99.9032775,14.5854672 100.12227,14.1114845 100.548254,13.7934961 C100.956239,13.4875073 101.46622,13.3345129 102.078198,13.3345129 C103.260155,13.358512 104.343115,13.6944997 105.327079,14.3424761 L105.327079,14.3424761 L106.434039,12.7045359 C105.228083,11.8345677 103.809135,11.3815842 102.177194,11.3455855 C100.821244,11.3575851 99.7742822,11.7115722 99.0363092,12.4075468 C98.274337,13.1095211 97.8933509,14.0334874 97.8933509,15.1794455 C97.8933509,16.1334107 98.1963399,16.9433811 98.8023177,17.6093567 C99.3902962,18.2573331 100.248265,18.6743178 101.376224,18.860311 C102.006201,18.9503078 102.58518,19.0313048 103.11316,19.1033022 C104.265118,19.3012949 104.835097,19.8892735 104.823098,20.8672377 C104.799099,22.0611941 103.93513,22.6701719 102.231192,22.694171 C100.791245,22.6821714 99.5492904,22.2471873 98.5053286,21.3892187 L98.5053286,21.3892187 L97.2003762,22.8831641 C98.5983252,24.0831203 100.269264,24.6830983 102.213193,24.6830983 Z M113.138794,24.5751023 L113.138794,13.2265168 L116.729663,13.2265168 L116.729663,11.4535816 L107.549998,11.4535816 L107.549998,13.2265168 L111.140867,13.2265168 L111.140867,24.5751023 L113.138794,24.5751023 Z M120.122539,24.5751023 L120.122539,18.9683071 L122.660446,18.9683071 L125.369347,24.5751023 L127.736261,24.5751023 L124.694372,18.752315 C126.362311,18.1103384 127.20828,16.8983827 127.232279,15.1164478 C127.196281,13.9044921 126.761296,12.9715262 125.927327,12.31755 C125.237352,11.7415711 124.346385,11.4535816 123.254424,11.4535816 L123.254424,11.4535816 L118.133612,11.4535816 L118.133612,24.5751023 L120.122539,24.5751023 Z M123.128429,17.2043715 L120.122539,17.2043715 L120.122539,13.2265168 L123.236425,13.2265168 C123.872402,13.2265168 124.358384,13.3615119 124.694372,13.631502 C125.120356,13.9374909 125.339348,14.4324728 125.351348,15.1164478 C125.351348,15.686427 125.168355,16.1664094 124.802368,16.5563952 C124.430382,16.9763799 123.872402,17.192372 123.128429,17.2043715 L123.128429,17.2043715 Z M130.112174,24.5751023 L131.120137,21.6412095 L136.096955,21.6412095 L137.113918,24.5751023 L139.210842,24.5751023 L134.441016,11.4535816 L132.776077,11.4535816 L128.006251,24.5751023 L130.112174,24.5751023 Z M135.529976,19.8772739 L131.696116,19.8772739 L133.595047,14.1444833 L133.631045,14.1444833 L135.529976,19.8772739 Z M144.835636,24.5751023 L144.835636,13.2265168 L148.426505,13.2265168 L148.426505,11.4535816 L139.24684,11.4535816 L139.24684,13.2265168 L142.837709,13.2265168 L142.837709,24.5751023 L144.835636,24.5751023 Z M158.209148,24.5751023 L158.209148,22.694171 L151.819381,22.694171 L151.819381,18.8423117 L157.273182,18.8423117 L157.273182,17.0783761 L151.819381,17.0783761 L151.819381,13.3345129 L158.209148,13.3345129 L158.209148,11.4535816 L149.830454,11.4535816 L149.830454,24.5751023 L158.209148,24.5751023 Z M164.319924,24.6830983 C165.657876,24.6590992 166.767835,24.2061158 167.649803,23.324148 C168.525771,22.4361804 168.975754,21.3352206 168.999753,20.0212686 L168.999753,20.0212686 L168.999753,17.3483663 L164.337924,17.3483663 L164.337924,19.2292976 L167.010826,19.2292976 L167.010826,19.9132726 C166.998827,20.7352425 166.740836,21.3982183 166.236854,21.9021999 C165.732873,22.4301806 165.093896,22.694171 164.319924,22.694171 C163.851941,22.694171 163.449956,22.5951746 163.113968,22.3971818 C162.771981,22.229188 162.495991,22.010196 162.285999,21.7402058 C162.028008,21.4582161 161.857014,21.0892296 161.773017,20.6332463 C161.677021,20.1772629 161.629023,19.3042948 161.629023,18.0143419 C161.629023,16.7243891 161.677021,15.8454212 161.773017,15.3774383 C161.857014,14.9334545 162.028008,14.5704677 162.285999,14.288478 C162.495991,14.0184879 162.771981,13.7934961 163.113968,13.6135027 C163.449956,13.4395091 163.851941,13.3465125 164.319924,13.3345129 C164.955901,13.3465125 165.495881,13.5295058 165.939865,13.8834928 C166.36585,14.2554793 166.659839,14.7054628 166.821833,15.2334435 L166.821833,15.2334435 L168.927756,15.2334435 C168.717764,14.1354836 168.213782,13.2145173 167.415811,12.4705445 C166.61784,11.7325714 165.585878,11.3575851 164.319924,11.3455855 C163.287962,11.3575851 162.426994,11.6035761 161.737019,12.0835586 C161.035044,12.5575413 160.525063,13.0975216 160.207075,13.7034994 C160.009082,14.0214878 159.862087,14.4384726 159.766091,14.9544537 C159.676094,15.4704349 159.631096,16.4903976 159.631096,18.0143419 C159.631096,19.5142871 159.676094,20.5282501 159.766091,21.0562308 C159.814089,21.3382205 159.874087,21.572212 159.946084,21.7582052 C160.024081,21.9381986 160.111078,22.1271917 160.207075,22.3251845 C160.525063,22.9311623 161.035044,23.4651428 161.737019,23.9271259 C162.426994,24.4071084 163.287962,24.6590992 164.319924,24.6830983 Z M175.479517,24.5751023 L175.479517,19.1752995 L179.430372,11.4535816 L177.324449,11.4535816 L174.543551,17.2763689 L171.762653,11.4535816 L169.656729,11.4535816 L173.607585,19.1752995 L173.607585,24.5751023 L175.479517,24.5751023 Z" id="CRESTSTRATEGY" fill="#1A1A1A" fill-rule="nonzero"></path>
                    <g id="编组-2">
                        <circle id="椭圆形" fill="url(#radialGradient-1)" cx="18" cy="18" r="18"></circle>
                        <g id="编组-4" transform="translate(5.142857, 3.857143)">
                            <g id="编组-3">
                                <path d="M11.9173012,5.70086689 L11.9166972,21.3033933 C7.24795062,21.3441007 3.06913266,21.8405521 0.145458275,22.6109899 C5.83506386,16.9048502 9.75845542,11.2681652 11.9173012,5.70086689 L11.9173012,5.70086689 Z" id="形状结合" fill="#5E9EFF"></path>
                                <path d="M13.2715399,0.06958098 C15.8719501,8.87475101 19.9919425,16.5030764 25.6315171,22.9545571 L25.4630852,22.7574874 C22.5482237,21.9101976 18.1857309,21.3548665 13.2721014,21.3044343 Z" id="形状结合" fill="#FFFFFF"></path>
                            </g>
                        </g>
                    </g>
                </g>
            </g>
        </g>
    </g>
</svg>