<?xml version="1.0" encoding="UTF-8"?>
<svg width="182px" height="36px" viewBox="0 0 182 36" version="1.1" xmlns="http://www.w3.org/2000/svg" xmlns:xlink="http://www.w3.org/1999/xlink">
    <!-- Generator: Sketch 63.1 (92452) - https://sketch.com -->
    <title>编组 3</title>
    <desc>Created with Sketch.</desc>
    <g id="页面-1" stroke="none" stroke-width="1" fill="none" fill-rule="evenodd">
        <g id="首页" transform="translate(-50.000000, -14.000000)">
            <g id="topbar">
                <g id="编组-3" transform="translate(50.000000, 14.000000)">
                    <path d="M48.6312235,24.6830983 C49.7711819,24.6830983 50.7581458,24.3591102 51.5921154,23.7111338 C52.4020858,23.0571577 52.9510657,22.1211919 53.2390552,20.9032364 L53.2390552,20.9032364 L51.1331321,20.9032364 C50.5811523,22.0971928 49.7471828,22.694171 48.6312235,22.694171 C48.1632406,22.694171 47.7612553,22.5951746 47.4252676,22.3971818 C47.0832801,22.229188 46.8072901,22.010196 46.5972978,21.7402058 C46.3393072,21.4582161 46.1683135,21.0892296 46.0843166,20.6332463 C45.9883201,20.1772629 45.9403218,19.3042948 45.9403218,18.0143419 C45.9403218,16.7243891 45.9883201,15.8454212 46.0843166,15.3774383 C46.1683135,14.9334545 46.3393072,14.5704677 46.5972978,14.288478 C46.8072901,14.0184879 47.0832801,13.7934961 47.4252676,13.6135027 C47.7612553,13.4395091 48.1632406,13.3465125 48.6312235,13.3345129 C49.2672003,13.3465125 49.8071806,13.5295058 50.2511643,13.8834928 C50.6771488,14.2554793 50.971138,14.7054628 51.1331321,15.2334435 L51.1331321,15.2334435 L53.2390552,15.2334435 C53.0290629,14.1354836 52.5250813,13.2145173 51.7271104,12.4705445 C50.9291396,11.7325714 49.8971773,11.3575851 48.6312235,11.3455855 C47.5992612,11.3575851 46.7382927,11.6035761 46.0483179,12.0835586 C45.3463435,12.5575413 44.8363621,13.0975216 44.5183738,13.7034994 C44.320381,14.0214878 44.1733864,14.4384726 44.0773899,14.9544537 C43.9873932,15.4704349 43.9423948,16.4903976 43.9423948,18.0143419 C43.9423948,19.5142871 43.9873932,20.5282501 44.0773899,21.0562308 C44.1253881,21.3382205 44.1853859,21.572212 44.2573833,21.7582052 C44.3353804,21.9381986 44.4223773,22.1271917 44.5183738,22.3251845 C44.8363621,22.9311623 45.3463435,23.4651428 46.0483179,23.9271259 C46.7382927,24.4071084 47.5992612,24.6590992 48.6312235,24.6830983 Z M56.6319313,24.5751023 L56.6319313,18.9683071 L59.1698385,18.9683071 L61.8787396,24.5751023 L64.2456531,24.5751023 L61.2037642,18.752315 C62.8717033,18.1103384 63.7176724,16.8983827 63.7416715,15.1164478 C63.7056729,13.9044921 63.2706887,12.9715262 62.4367192,12.31755 C61.7467444,11.7415711 60.855777,11.4535816 59.7638168,11.4535816 L59.7638168,11.4535816 L54.6430039,11.4535816 L54.6430039,24.5751023 L56.6319313,24.5751023 Z M59.6378214,17.2043715 L56.6319313,17.2043715 L56.6319313,13.2265168 L59.7458175,13.2265168 C60.3817943,13.2265168 60.8677765,13.3615119 61.2037642,13.631502 C61.6297487,13.9374909 61.8487407,14.4324728 61.8607402,15.1164478 C61.8607402,15.686427 61.6777469,16.1664094 61.3117603,16.5563952 C60.9397739,16.9763799 60.3817943,17.192372 59.6378214,17.2043715 L59.6378214,17.2043715 Z M74.2622872,24.5751023 L74.2622872,22.694171 L67.8725206,22.694171 L67.8725206,18.8423117 L73.3263214,18.8423117 L73.3263214,17.0783761 L67.8725206,17.0783761 L67.8725206,13.3345129 L74.2622872,13.3345129 L74.2622872,11.4535816 L65.8835933,11.4535816 L65.8835933,24.5751023 L74.2622872,24.5751023 Z M80.0040775,24.6830983 C83.0099677,24.6470996 84.5459116,23.3751461 84.6119092,20.8672377 C84.6119092,19.9372717 84.3209198,19.1213015 83.738941,18.4193271 C83.1509625,17.7053532 82.2419957,17.2643693 81.0120407,17.0963755 C80.3880634,17.0183783 79.8960814,16.9493808 79.5360946,16.889383 C78.8881182,16.7693874 78.4171354,16.5533953 78.1231462,16.2414067 C77.8291569,15.9354179 77.6821623,15.5934304 77.6821623,15.2154442 C77.6941619,14.5854672 77.9131539,14.1114845 78.3391383,13.7934961 C78.7471234,13.4875073 79.2571048,13.3345129 79.8690824,13.3345129 C81.0510392,13.358512 82.1339997,13.6944997 83.1179637,14.3424761 L83.1179637,14.3424761 L84.2249233,12.7045359 C83.0189673,11.8345677 81.6000192,11.3815842 79.9680788,11.3455855 C78.6121283,11.3575851 77.5651666,11.7115722 76.8271935,12.4075468 C76.0652214,13.1095211 75.6842353,14.0334874 75.6842353,15.1794455 C75.6842353,16.1334107 75.9872242,16.9433811 76.5932021,17.6093567 C77.1811806,18.2573331 78.0391493,18.6743178 79.1671081,18.860311 C79.797085,18.9503078 80.3760639,19.0313048 80.9040446,19.1033022 C82.0560025,19.3012949 82.6259817,19.8892735 82.6139821,20.8672377 C82.589983,22.0611941 81.7260146,22.6701719 80.0220768,22.694171 C78.5821294,22.6821714 77.3401748,22.2471873 76.2962129,21.3892187 L76.2962129,21.3892187 L74.9912606,22.8831641 C76.3892095,24.0831203 78.0601485,24.6830983 80.0040775,24.6830983 Z M90.9296784,24.5751023 L90.9296784,13.2265168 L94.5205472,13.2265168 L94.5205472,11.4535816 L85.3408825,11.4535816 L85.3408825,13.2265168 L88.9317514,13.2265168 L88.9317514,24.5751023 L90.9296784,24.5751023 Z M104.213193,24.6830983 C107.219083,24.6470996 108.755027,23.3751461 108.821025,20.8672377 C108.821025,19.9372717 108.530035,19.1213015 107.948057,18.4193271 C107.360078,17.7053532 106.451111,17.2643693 105.221156,17.0963755 C104.597179,17.0183783 104.105197,16.9493808 103.74521,16.889383 C103.097234,16.7693874 102.626251,16.5533953 102.332262,16.2414067 C102.038273,15.9354179 101.891278,15.5934304 101.891278,15.2154442 C101.903278,14.5854672 102.12227,14.1114845 102.548254,13.7934961 C102.956239,13.4875073 103.46622,13.3345129 104.078198,13.3345129 C105.260155,13.358512 106.343115,13.6944997 107.327079,14.3424761 L107.327079,14.3424761 L108.434039,12.7045359 C107.228083,11.8345677 105.809135,11.3815842 104.177194,11.3455855 C102.821244,11.3575851 101.774282,11.7115722 101.036309,12.4075468 C100.274337,13.1095211 99.8933509,14.0334874 99.8933509,15.1794455 C99.8933509,16.1334107 100.19634,16.9433811 100.802318,17.6093567 C101.390296,18.2573331 102.248265,18.6743178 103.376224,18.860311 C104.006201,18.9503078 104.58518,19.0313048 105.11316,19.1033022 C106.265118,19.3012949 106.835097,19.8892735 106.823098,20.8672377 C106.799099,22.0611941 105.93513,22.6701719 104.231192,22.694171 C102.791245,22.6821714 101.54929,22.2471873 100.505329,21.3892187 L100.505329,21.3892187 L99.2003762,22.8831641 C100.598325,24.0831203 102.269264,24.6830983 104.213193,24.6830983 Z M115.138794,24.5751023 L115.138794,13.2265168 L118.729663,13.2265168 L118.729663,11.4535816 L109.549998,11.4535816 L109.549998,13.2265168 L113.140867,13.2265168 L113.140867,24.5751023 L115.138794,24.5751023 Z M122.122539,24.5751023 L122.122539,18.9683071 L124.660446,18.9683071 L127.369347,24.5751023 L129.736261,24.5751023 L126.694372,18.752315 C128.362311,18.1103384 129.20828,16.8983827 129.232279,15.1164478 C129.196281,13.9044921 128.761296,12.9715262 127.927327,12.31755 C127.237352,11.7415711 126.346385,11.4535816 125.254424,11.4535816 L125.254424,11.4535816 L120.133612,11.4535816 L120.133612,24.5751023 L122.122539,24.5751023 Z M125.128429,17.2043715 L122.122539,17.2043715 L122.122539,13.2265168 L125.236425,13.2265168 C125.872402,13.2265168 126.358384,13.3615119 126.694372,13.631502 C127.120356,13.9374909 127.339348,14.4324728 127.351348,15.1164478 C127.351348,15.686427 127.168355,16.1664094 126.802368,16.5563952 C126.430382,16.9763799 125.872402,17.192372 125.128429,17.2043715 L125.128429,17.2043715 Z M132.112174,24.5751023 L133.120137,21.6412095 L138.096955,21.6412095 L139.113918,24.5751023 L141.210842,24.5751023 L136.441016,11.4535816 L134.776077,11.4535816 L130.006251,24.5751023 L132.112174,24.5751023 Z M137.529976,19.8772739 L133.696116,19.8772739 L135.595047,14.1444833 L135.631045,14.1444833 L137.529976,19.8772739 Z M146.835636,24.5751023 L146.835636,13.2265168 L150.426505,13.2265168 L150.426505,11.4535816 L141.24684,11.4535816 L141.24684,13.2265168 L144.837709,13.2265168 L144.837709,24.5751023 L146.835636,24.5751023 Z M160.209148,24.5751023 L160.209148,22.694171 L153.819381,22.694171 L153.819381,18.8423117 L159.273182,18.8423117 L159.273182,17.0783761 L153.819381,17.0783761 L153.819381,13.3345129 L160.209148,13.3345129 L160.209148,11.4535816 L151.830454,11.4535816 L151.830454,24.5751023 L160.209148,24.5751023 Z M166.319924,24.6830983 C167.657876,24.6590992 168.767835,24.2061158 169.649803,23.324148 C170.525771,22.4361804 170.975754,21.3352206 170.999753,20.0212686 L170.999753,20.0212686 L170.999753,17.3483663 L166.337924,17.3483663 L166.337924,19.2292976 L169.010826,19.2292976 L169.010826,19.9132726 C168.998827,20.7352425 168.740836,21.3982183 168.236854,21.9021999 C167.732873,22.4301806 167.093896,22.694171 166.319924,22.694171 C165.851941,22.694171 165.449956,22.5951746 165.113968,22.3971818 C164.771981,22.229188 164.495991,22.010196 164.285999,21.7402058 C164.028008,21.4582161 163.857014,21.0892296 163.773017,20.6332463 C163.677021,20.1772629 163.629023,19.3042948 163.629023,18.0143419 C163.629023,16.7243891 163.677021,15.8454212 163.773017,15.3774383 C163.857014,14.9334545 164.028008,14.5704677 164.285999,14.288478 C164.495991,14.0184879 164.771981,13.7934961 165.113968,13.6135027 C165.449956,13.4395091 165.851941,13.3465125 166.319924,13.3345129 C166.955901,13.3465125 167.495881,13.5295058 167.939865,13.8834928 C168.36585,14.2554793 168.659839,14.7054628 168.821833,15.2334435 L168.821833,15.2334435 L170.927756,15.2334435 C170.717764,14.1354836 170.213782,13.2145173 169.415811,12.4705445 C168.61784,11.7325714 167.585878,11.3575851 166.319924,11.3455855 C165.287962,11.3575851 164.426994,11.6035761 163.737019,12.0835586 C163.035044,12.5575413 162.525063,13.0975216 162.207075,13.7034994 C162.009082,14.0214878 161.862087,14.4384726 161.766091,14.9544537 C161.676094,15.4704349 161.631096,16.4903976 161.631096,18.0143419 C161.631096,19.5142871 161.676094,20.5282501 161.766091,21.0562308 C161.814089,21.3382205 161.874087,21.572212 161.946084,21.7582052 C162.024081,21.9381986 162.111078,22.1271917 162.207075,22.3251845 C162.525063,22.9311623 163.035044,23.4651428 163.737019,23.9271259 C164.426994,24.4071084 165.287962,24.6590992 166.319924,24.6830983 Z M177.479517,24.5751023 L177.479517,19.1752995 L181.430372,11.4535816 L179.324449,11.4535816 L176.543551,17.2763689 L173.762653,11.4535816 L171.656729,11.4535816 L175.607585,19.1752995 L175.607585,24.5751023 L177.479517,24.5751023 Z" id="CRESTSTRATEGY" fill="#1A1A1A" fill-rule="nonzero"></path>
                    <g id="编组-4">
                        <path d="M22.2830014,0 C29.4868425,0 35.3267095,5.83986705 35.3267095,13.0437081 L35.3267095,22.2830014 C35.3267095,29.4868425 29.4868425,35.3267095 22.2830014,35.3267095 L13.0437081,35.3267095 C5.83986705,35.3267095 0,29.4868425 0,22.2830014 L0,13.0437081 C0,5.83986705 5.83986705,0 13.0437081,0 L22.2830014,0 Z" id="矩形" fill="#000000" fill-rule="nonzero"></path>
                        <g id="编组-5" transform="translate(8.152318, 7.065342)">
                            <path d="M9.14972693,6.49063896 C10.7424084,5.7701781 12.1726267,5.98577742 13.440382,7.13743692 C15.2638342,5.87412394 16.8258113,4.84582701 18.4802065,3.71336927 C16.6881563,1.31026133 11.4146285,-1.94278574 5.75346627,1.48843 C5.95649531,1.81855852 7.0885822,3.48596151 9.14972693,6.49063896 Z" id="路径-7" fill="#FFFFFF"></path>
                            <path d="M6.59354382,6.01156987 C6.8017783,5.75290611 6.98532686,5.57348192 7.1441895,5.4732973 C6.38327059,4.33811261 4.78063657,1.91130316 3.71318856,0.36300679 C3.11941387,0.635116881 1.81004701,1.86151543 1.43860989,2.67468732 C1.66819646,2.83736626 3.38650777,3.94966044 6.59354382,6.01156987 Z" id="路径-8" fill="#EE4A4A"></path>
                            <path d="M7.39451109,7.84260991 C7.21070554,8.04453544 7.09098138,8.30567161 7.03533861,8.62601843 C6.69615022,8.55858966 4.69431333,8.16111266 1.02982795,7.43358743 C1.30234925,6.24259977 1.70846531,5.27298039 2.24817613,4.52472928 C2.41714896,4.64335101 4.13259394,5.74931122 7.39451109,7.84260991 Z" id="路径-9" fill="#FFFFFF"></path>
                            <path d="M6.10278112,9.57945192 C6.0575752,10.3369774 6.19373346,11.0570705 6.51125591,11.7397312 C6.28862577,11.9030492 4.59774376,13.0423612 1.43860989,15.1576671 C0.182924874,13.0696008 -0.250745326,10.8386463 0.137599292,8.46480341 C0.426131794,8.51472944 2.41452574,8.88627895 6.10278112,9.57945192 Z" id="路径-12" fill="#FFFFFF"></path>
                            <path d="M7.84512406,12.2841381 C8.01998619,12.519576 8.18763345,12.6922658 8.34806584,12.8022074 C8.14811096,13.1520492 6.01257712,16.5282282 5.03445759,18.0122563 C4.52288845,17.7613325 2.97348518,16.3030148 2.70089453,15.725478 C2.88224736,15.5942028 4.59699054,14.4470895 7.84512406,12.2841381 Z" id="路径-13" fill="#FFFFFF"></path>
                            <path d="M8.72734384,14.4261544 C9.14227243,14.6478411 9.6115388,14.7835832 10.1351429,14.8333807 C10.1340655,15.3234761 10.1351429,19.3706387 10.1131192,20.932734 C8.60438805,21.0564875 6.24833746,20.3202855 5.43785091,19.5410354 C5.59384318,19.2914562 6.69034082,17.5864959 8.72734384,14.4261544 Z" id="路径-14" fill="#EE4A4A"></path>
                            <path d="M11.323686,13.4023083 C12.3592925,13.2710486 13.1931209,12.7925654 13.825171,11.9668589 C14.0737784,12.1274988 15.7552409,13.2324074 18.8695585,15.2815845 C16.8647283,17.8786953 14.3494374,19.2769851 11.323686,19.4764541 C11.3295167,19.1148241 11.3295167,17.0901089 11.323686,13.4023083 Z" id="路径-15" fill="#FFFFFF"></path>
                        </g>
                    </g>
                </g>
            </g>
        </g>
    </g>
</svg>