<?xml version="1.0" encoding="UTF-8"?>
<svg width="76px" height="76px" viewBox="0 0 76 76" version="1.1" xmlns="http://www.w3.org/2000/svg" xmlns:xlink="http://www.w3.org/1999/xlink">
    <!-- Generator: Sketch 63.1 (92452) - https://sketch.com -->
    <title>编组 10</title>
    <desc>Created with Sketch.</desc>
    <g id="页面-1" stroke="none" stroke-width="1" fill="none" fill-rule="evenodd">
        <g id="首页" transform="translate(-852.000000, -2952.000000)">
            <g id="编组-14" transform="translate(130.000000, 2472.000000)">
                <g id="编组-10" transform="translate(722.000000, 480.000000)">
                    <circle id="椭圆形" fill="#E1EFFF" cx="38" cy="38" r="38"></circle>
                    <g id="产品设计_2" transform="translate(23.000000, 23.000000)" fill="#000000" fill-rule="nonzero">
                        <path d="M5.83052885,0.89589497 C6.984375,-0.260170118 8.859375,-0.260170118 10.0132212,0.89589497 L13.1530141,4.03346893 C13.5421434,4.40406834 13.6998269,4.95646927 13.5649692,5.47664136 C13.4301116,5.99681345 13.023903,6.40302206 12.5037309,6.53787973 C11.9835588,6.67273739 11.4311578,6.51505393 11.0605584,6.12592456 L7.92298447,2.98835059 L3.73807322,7.1710429 L6.87564719,10.3086169 C7.26477657,10.6792163 7.42246003,11.2316172 7.28760236,11.7517893 C7.15274469,12.2719614 6.74653609,12.67817 6.226364,12.8130277 C5.70619191,12.9478853 5.15379098,12.7902019 4.78319157,12.4010725 L1.6456176,9.26349852 C1.09033557,8.70871908 0.778339095,7.95597497 0.778339095,7.1710429 C0.778339095,6.38611083 1.09033557,5.63336672 1.6456176,5.07858728 L5.83052885,0.89589497 Z M23.8882212,18.3411612 C24.4651442,17.7642382 25.4015348,17.7642382 25.9806768,18.3411612 L29.1182507,21.4787352 C30.2720969,22.6325814 30.2720969,24.5075814 29.1182507,25.6614275 L24.9333395,29.8463388 C23.7794933,31.0001849 21.9044933,31.0001849 20.7506472,29.8463388 L17.6086354,26.7087648 C17.219506,26.3381654 17.0618225,25.7857645 17.1966802,25.2655924 C17.3315379,24.7454203 17.7377465,24.3392117 18.2579185,24.204354 C18.7780906,24.0694963 19.3304916,24.2271798 19.701091,24.6163092 L22.8386649,27.7538831 L27.0235762,23.5711908 L23.8882212,20.4313979 C23.3121252,19.8537369 23.3121252,18.9188223 23.8882212,18.3411612 Z" id="形状"></path>
                        <path d="M24.948872,1.61926775 C23.7938008,0.464376251 21.921251,0.464376251 20.7661797,1.61926775 L0.891179734,21.4942678 C-0.26266642,22.6481139 -0.26266642,24.5231139 0.891179734,25.6769601 L5.07609098,29.8618713 C6.22993713,31.0157175 8.10493713,31.0157175 9.25878328,29.8618713 L29.1337833,9.9868713 C30.2876294,8.83302515 30.2876294,6.95802515 29.1337833,5.80417899 L24.948872,1.61926775 Z M16.4925111,15.7405695 C16.4925111,16.5579673 15.8298793,17.2205991 15.0124815,17.2205991 C14.1950837,17.2205991 13.5324519,16.5579673 13.5324519,15.7405695 C13.5324519,14.9231718 14.1950837,14.2605399 15.0124815,14.2605399 C15.8298793,14.2605399 16.4925111,14.9231718 16.4925111,15.7405695 Z M13.5324519,18.6984098 C13.5534513,19.2404407 13.2762535,19.7505314 12.8100286,20.027791 C12.3438037,20.3050505 11.7632599,20.3050505 11.297035,20.027791 C10.8308101,19.7505314 10.5536124,19.2404407 10.5746117,18.6984098 C10.6053925,17.9039005 11.2584265,17.2756764 12.0535318,17.2756764 C12.8486371,17.2756764 13.5016711,17.9039005 13.5324519,18.6984098 Z M19.4503513,12.7827293 C19.4195705,13.5772386 18.7665365,14.2054626 17.9714312,14.2054626 C17.1763259,14.2054626 16.5232919,13.5772386 16.4925111,12.7827293 C16.4925111,11.9639423 17.1581916,11.3182322 17.9703217,11.3182322 C18.7824519,11.3182322 19.4503513,11.9639423 19.4503513,12.7827293 Z" id="形状"></path>
                    </g>
                </g>
            </g>
        </g>
    </g>
</svg>