<?xml version="1.0" encoding="UTF-8"?>
<svg width="76px" height="76px" viewBox="0 0 76 76" version="1.1" xmlns="http://www.w3.org/2000/svg" xmlns:xlink="http://www.w3.org/1999/xlink">
    <!-- Generator: Sketch 63.1 (92452) - https://sketch.com -->
    <title>编组 10</title>
    <desc>Created with Sketch.</desc>
    <defs>
        <linearGradient x1="17.6772402%" y1="11.1732675%" x2="80.7900254%" y2="90.1844859%" id="linearGradient-1">
            <stop stop-color="#F8D0E4" offset="0%"></stop>
            <stop stop-color="#EFE9F9" offset="42.9127533%"></stop>
            <stop stop-color="#D1E0FE" offset="100%"></stop>
        </linearGradient>
        <circle id="path-2" cx="38" cy="38" r="38"></circle>
    </defs>
    <g id="页面-1" stroke="none" stroke-width="1" fill="none" fill-rule="evenodd">
        <g id="首页" transform="translate(-852.000000, -2593.000000)">
            <g id="编组-14" transform="translate(130.000000, 2472.000000)">
                <g id="编组-10" transform="translate(722.000000, 121.000000)">
                    <g id="椭圆形">
                        <use fill="url(#linearGradient-1)" xlink:href="#path-2"></use>
                        <use fill="#E1EFFF" xlink:href="#path-2"></use>
                    </g>
                    <g id="风险管理" transform="translate(24.000000, 21.000000)" fill="#000000" fill-rule="nonzero">
                        <path d="M25.3178994,4.68469392 C24.856666,4.6191379 24.132038,4.48685525 23.0129032,4.28901658 C21.9593245,4.09234854 20.9057458,3.76222722 19.9844497,3.43327652 C17.7450096,2.51198044 15.9679734,1.58951374 14.5842734,0.60149102 L13.8596453,0.00914563957 L13.0694613,0.60149102 C11.6881025,1.58951374 9.90872508,2.51080982 7.67045559,3.43327652 C6.74915951,3.82778323 5.76113679,4.09234854 4.64083142,4.28901658 C3.58725269,4.48685525 2.79706864,4.61796728 2.33700591,4.68469392 C1.87577256,4.75024993 1.54682186,4.75024993 1.34898319,4.75024993 L0.0320097797,4.81580595 L0.0320097797,18.6457828 C0.0320097797,20.2917069 0.493243131,22.0043577 1.48009522,23.7813938 C2.46811794,25.5596006 3.65397933,27.1399687 5.10206477,28.4569421 C6.4803435,29.7127987 8.00638047,30.7961984 9.64650102,31.6832343 C11.2268691,32.540145 12.6749546,32.9346517 13.860816,32.9346517 C15.0455067,32.9346517 16.4947628,32.540145 18.0751309,31.6832343 C19.7144326,30.7960371 21.2396756,29.7126428 22.6172258,28.4569421 C24.0874989,27.1208443 25.3135698,25.5386385 26.2403661,23.7813938 C27.2272181,22.0043577 27.6884515,20.2917069 27.6884515,18.6457828 L27.6884515,4.81580595 L26.3059221,4.75024993 C26.1080834,4.75024993 25.7791327,4.75024993 25.3178994,4.68469392 Z M12.0053468,8.78896843 L18.3034063,8.8205758 L15.3767987,15.4557805 L20.5182629,14.7931965 L11.3802233,27.519257 L13.1549182,19.773112 L8.81183253,19.9885104 L12.0053468,8.78896843 Z" id="形状"></path>
                    </g>
                </g>
            </g>
        </g>
    </g>
</svg>