<?xml version="1.0" encoding="UTF-8"?>
<svg width="18px" height="16px" viewBox="0 0 18 16" version="1.1" xmlns="http://www.w3.org/2000/svg" xmlns:xlink="http://www.w3.org/1999/xlink">
    <!-- Generator: Sketch 63.1 (92452) - https://sketch.com -->
    <title>工作台</title>
    <desc>Created with Sketch.</desc>
    <g id="页面-1" stroke="none" stroke-width="1" fill="none" fill-rule="evenodd">
        <g id="交易所" transform="translate(-49.000000, -140.000000)" fill="#999999" fill-rule="nonzero" stroke="#999999" stroke-width="0.1">
            <g id="sidemenu" transform="translate(0.000000, 130.000000)">
                <g id="item" transform="translate(50.000000, 10.000000)">
                    <g id="工作台" transform="translate(0.000000, 1.000000)">
                        <path d="M14.8959752,1.11309885 C14.8955004,1.11309885 14.8965517,10.2825592 14.8965517,10.2825592 C14.8965517,10.2834864 1.10402483,10.2832299 1.10402483,10.2832299 C1.10449959,10.2832299 1.10344828,1.11376945 1.10344828,1.11376945 C1.10344828,1.11284255 14.8959752,1.11309885 14.8959752,1.11309885 Z M0,10.2825592 C0,10.8910425 0.494576547,11.3866304 1.10402483,11.3866304 L14.8959752,11.3866304 C15.506648,11.3866304 16,10.8925297 16,10.2825592 L16,1.11376945 C16,0.505286406 15.5054235,0.00969828125 14.8959752,0.00969828125 L1.10402483,0.00969828125 C0.493352,0.00969828125 0,0.503798969 0,1.11376945 L0,10.2825592 Z M13.1367421,13.9678434 C13.4414508,13.9678434 13.6884662,13.7208279 13.6884662,13.4161192 L13.6884662,13.3904354 C13.6884662,13.0857267 13.4414508,12.8387112 13.1367421,12.8387112 L2.86325794,12.8387112 C2.55854923,12.8387112 2.3115338,13.0857267 2.3115338,13.3904354 L2.3115338,13.4161192 C2.3115338,13.7208279 2.55854923,13.9678434 2.86325794,13.9678434 C3.16796689,13.9678434 13.1367421,13.9678434 13.1367421,13.9678434 Z M7.43543394,12.8515532 L8.5388822,12.8515532 L8.5388822,11.3866304 L7.4611178,11.3866304 L7.43543394,12.8515532 Z" id="形状"></path>
                    </g>
                </g>
            </g>
        </g>
    </g>
</svg>