<?xml version="1.0" encoding="UTF-8"?>
<svg width="18px" height="17px" viewBox="0 0 18 17" version="1.1" xmlns="http://www.w3.org/2000/svg" xmlns:xlink="http://www.w3.org/1999/xlink">
    <!-- Generator: Sketch 63.1 (92452) - https://sketch.com -->
    <title>策略管理</title>
    <desc>Created with Sketch.</desc>
    <g id="页面-1" stroke="none" stroke-width="1" fill="none" fill-rule="evenodd">
        <g id="交易所" transform="translate(-49.000000, -200.000000)" fill="#999999" fill-rule="nonzero">
            <g id="sidemenu" transform="translate(0.000000, 130.000000)">
                <g id="item" transform="translate(50.000000, 70.000000)">
                    <g id="策略管理">
                        <path d="M13.1730324,16.4742839 C12.8973645,16.4742839 12.6739607,16.2506752 12.6739607,15.9752122 L12.6739607,15.0567974 C12.6739607,14.7811294 12.8973645,14.5577257 13.1730324,14.5577257 C13.4487003,14.5577257 13.6721041,14.7813344 13.6721041,15.0567974 L13.6721041,15.9752122 C13.6721041,16.2506752 13.4487003,16.4742839 13.1730324,16.4742839 L13.1730324,16.4742839 Z M13.1730324,10.4579596 C12.8973645,10.4579596 12.6739607,10.2343509 12.6739607,9.95888792 L12.6739607,9.35057388 C12.6739607,9.07490596 12.8973645,8.85150222 13.1730324,8.85150222 C13.4487003,8.85150222 13.6721041,9.07511092 13.6721041,9.35057388 L13.6721041,9.95888792 C13.6721041,10.2343509 13.4487003,10.4579596 13.1730324,10.4579596 Z M10.5987654,13.1619647 L9.86050829,13.1619647 C9.58484037,13.1619647 9.36143663,12.938356 9.36143663,12.662893 C9.36143663,12.3872251 9.58484037,12.1638214 9.86050829,12.1638214 L10.5985605,12.1638214 C10.8742284,12.1638214 11.0976323,12.3874301 11.0976323,12.662893 C11.0978371,12.938356 10.8744334,13.1619647 10.5987654,13.1619647 Z M16.4990837,13.1619647 L15.6112076,13.1619647 C15.3355396,13.1619647 15.1121359,12.938356 15.1121359,12.662893 C15.1121359,12.3872251 15.3355396,12.1638214 15.6112076,12.1638214 L16.4990837,12.1638214 C16.7747516,12.1638214 16.9981555,12.3874301 16.9981555,12.662893 C16.9983603,12.938356 16.7747516,13.1619647 16.4990837,13.1619647 Z M15.5150825,15.50422 C15.3871889,15.50422 15.2595004,15.4554398 15.1619406,15.358085 L14.60958,14.8053144 C14.4146653,14.6103998 14.4146653,14.2945602 14.60958,14.0994406 C14.8044946,13.9045259 15.1203342,13.9045259 15.3154538,14.0994406 L15.8682243,14.6522111 C16.063139,14.8471258 16.063139,15.1633753 15.8678144,15.3582899 C15.7742845,15.4518493 15.6473745,15.5043536 15.5150825,15.50422 L15.5150825,15.50422 Z M11.4472897,11.4360175 C11.3196012,11.4360175 11.1921176,11.3872372 11.0945578,11.2900873 L10.4778405,10.6735749 C10.2829258,10.4786603 10.2829258,10.1628207 10.4778405,9.9677011 C10.6727551,9.77278646 10.9885947,9.77278646 11.1837143,9.9677011 L11.8000217,10.5835986 C11.9951413,10.7785132 11.9951413,11.0947627 11.8004316,11.2896774 C11.7068918,11.3835224 11.5797909,11.4361922 11.4472897,11.4360175 L11.4472897,11.4360175 Z M10.8307774,15.5042197 C10.7030888,15.5042197 10.5754003,15.4554398 10.4778405,15.358085 C10.2829258,15.1631703 10.2829258,14.8473307 10.4778405,14.6522111 L11.1642433,13.9656033 C11.359158,13.7706887 11.6752025,13.7706887 11.8703221,13.9656033 C12.0652368,14.160313 12.0652368,14.4763575 11.8705271,14.6714771 L11.1839193,15.358085 C11.0861545,15.4554398 10.958466,15.5042197 10.8307774,15.5042197 L10.8307774,15.5042197 Z M14.841387,11.4936105 C14.7090949,11.4937441 14.5821849,11.4412398 14.488655,11.3476804 C14.2935354,11.1527657 14.2935354,10.8365162 14.4882451,10.6416016 L15.1621455,9.9677011 C15.3572651,9.77299142 15.6733097,9.77299142 15.8682243,9.96831597 C16.063139,10.1632306 16.0627291,10.4790702 15.8678144,10.6741898 L15.1945288,11.3474754 C15.1009155,11.4411857 14.9738447,11.4937693 14.841387,11.4936105 L14.841387,11.4936105 Z" id="形状"></path>
                        <path d="M13.1730324,15.4632282 C11.6288821,15.4632282 10.3726972,14.2068383 10.3726972,12.6626881 C10.3726972,11.1187428 11.6290871,9.86255787 13.1730324,9.86255787 C14.7169777,9.86255787 15.9733676,11.1189477 15.9733676,12.6626881 C15.9733676,14.2070433 14.7169777,15.4632282 13.1730324,15.4632282 Z M13.1730324,10.8609062 C12.1791932,10.8609062 11.3710455,11.6690538 11.3710455,12.662893 C11.3710455,13.6567323 12.1793981,14.4650849 13.1730324,14.4650849 C14.1666667,14.4650849 14.9750193,13.6565273 14.9750193,12.662893 C14.9750193,11.6690538 14.1666667,10.8609062 13.1730324,10.8609062 L13.1730324,10.8609062 Z" id="形状"></path>
                        <path d="M13.1730324,15.4632282 C11.6288821,15.4632282 10.3726972,14.2068383 10.3726972,12.6626881 C10.3726972,11.1187428 11.6290871,9.86255787 13.1730324,9.86255787 C14.7169777,9.86255787 15.9733676,11.1189477 15.9733676,12.6626881 C15.9733676,14.2070433 14.7169777,15.4632282 13.1730324,15.4632282 Z M13.1730324,10.8609062 C12.1791932,10.8609062 11.3710455,11.6690538 11.3710455,12.662893 C11.3710455,13.6567323 12.1793981,14.4650849 13.1730324,14.4650849 C14.1666667,14.4650849 14.9750193,13.6565273 14.9750193,12.662893 C14.9750193,11.6690538 14.1666667,10.8609062 13.1730324,10.8609062 L13.1730324,10.8609062 Z" id="形状"></path>
                        <path d="M7.21348139,15.0797527 C7.03988233,15.0797527 6.86607832,15.0410156 6.70416184,14.9631318 L0.665907118,12.0580633 C0.261320891,11.8633536 0,11.4472897 0,10.9988426 L0,4.09566696 C0,3.64721981 0.261320891,3.23136092 0.66570216,3.03665123 L6.70416184,0.131582755 C7.02819975,-0.0243899498 7.39937789,-0.0239800347 7.72300588,0.13117284 L13.7614656,3.03665123 C14.1660518,3.23136092 14.4273727,3.64721981 14.4273727,4.09566696 L14.4273727,7.85971258 C14.4273727,8.1353805 14.2039689,8.35878424 13.928301,8.35878424 C13.6526331,8.35878424 13.4292294,8.13517554 13.4292294,7.85971258 L13.4292294,4.09566696 C13.4292294,4.02803096 13.3896726,3.96531395 13.3285952,3.93620997 L7.29054543,1.03093654 C7.24196979,1.00757082 7.18540289,1.00757082 7.13682726,1.03093654 L1.09877749,3.93600502 C1.03790509,3.96531395 0.998348283,4.02803096 0.998348283,4.095462 L0.998348283,10.9986376 C0.998348283,11.0662736 1.03790509,11.1289906 1.09898245,11.1580946 L7.13703221,14.0631631 C7.18601707,14.0869382 7.24197049,14.0865283 7.29095534,14.0627532 L8.36083382,13.5481047 C8.60944734,13.4292294 8.90766059,13.5327329 9.02694589,13.7813465 C9.14643615,14.02996 9.04190779,14.3281732 8.79370419,14.4474585 L7.72362076,14.9625169 C7.56464707,15.0397248 7.39021194,15.0797527 7.21348139,15.0797527 Z" id="路径" stroke="#999999" stroke-width="0.1"></path>
                        <path d="M7.21307147,8.04622396 C7.128424,8.04622396 7.04254678,8.02470341 6.96404803,7.97920284 L0.356011285,4.16432774 C0.117235725,4.02659626 0.0354576582,3.72141445 0.173394097,3.48263889 C0.310920621,3.24406829 0.616717303,3.1618803 0.855082948,3.3000217 L7.4631197,7.11510176 C7.70189525,7.25283324 7.78367332,7.55801505 7.64573688,7.79679061 C7.55350598,7.95686246 7.38564574,8.04622396 7.21307147,8.04622396 Z" id="路径" stroke="#999999" stroke-width="0.1"></path>
                        <path d="M7.21409626,8.04622441 C7.04152199,8.04622441 6.87386671,7.95686246 6.78143084,7.79658565 C6.64349441,7.55781009 6.72527247,7.25262828 6.96404803,7.1148968 L13.5720848,3.29981674 C13.8112703,3.16167535 14.1164521,3.24386333 14.2537736,3.48243393 C14.3917101,3.72120949 14.309727,4.0263913 14.0711564,4.16412278 L7.4631197,7.97940779 C7.38747207,8.0232878 7.30154913,8.04634202 7.21409626,8.04622441 L7.21409626,8.04622441 Z" id="路径" stroke="#999999" stroke-width="0.1"></path>
                        <path d="M7.21368634,15.0791377 C6.93801842,15.0791377 6.71461468,14.855529 6.71461468,14.5800661 L6.71461468,7.5471523 C6.71461468,7.27148438 6.93801842,7.04808063 7.21368634,7.04808063 C7.48935426,7.04808063 7.71275801,7.27168933 7.71275801,7.5471523 L7.71275801,14.5800661 C7.71275801,14.855529 7.48935426,15.0791377 7.21368634,15.0791377 Z" id="路径" stroke="#999999" stroke-width="0.1"></path>
                    </g>
                </g>
            </g>
        </g>
    </g>
</svg>