<?xml version="1.0" encoding="UTF-8"?>
<svg width="32px" height="32px" viewBox="0 0 32 32" version="1.1" xmlns="http://www.w3.org/2000/svg" xmlns:xlink="http://www.w3.org/1999/xlink">
    <!-- Generator: Sketch 63.1 (92452) - https://sketch.com -->
    <title>telegram</title>
    <desc>Created with Sketch.</desc>
    <g id="页面-1" stroke="none" stroke-width="1" fill="none" fill-rule="evenodd">
        <g id="首页" transform="translate(-1244.000000, -3948.000000)" fill-rule="nonzero">
            <g id="编组-7" transform="translate(1187.000000, 3948.000000)">
                <g id="telegram" transform="translate(57.000000, 0.000000)">
                    <path d="M32,16 C32,24.8388438 24.8388437,32 16,32 C7.16115625,32 0,24.8388437 0,16 C0,7.16115625 7.16115625,0 16,0 C24.8388437,0 32,7.16115625 32,16 Z" id="路径" fill="#798CFD"></path>
                    <path d="M21.1178362,22.8453355 L23.7429925,10.4704605 C23.9749925,9.38133552 23.3498362,8.95274177 22.635555,9.22017927 L7.20699249,15.1664605 C6.15324249,15.576773 6.17155499,16.1664605 7.02867999,16.433898 L10.9749925,17.665898 L20.1361175,11.897898 C20.56468,11.6121793 20.9578362,11.7733355 20.63668,12.0590543 L13.2263987,18.7550543 L12.94068,22.8270543 C13.3509925,22.8270543 13.5303987,22.6487418 13.7441175,22.433898 L15.6721175,20.5767418 L19.6721175,23.5230543 C20.40468,23.9333355 20.92243,23.7196168 21.1189925,22.8441793 L21.1178362,22.8453355 Z" id="路径" fill="#FFFFFF"></path>
                </g>
            </g>
        </g>
    </g>
</svg>