<?xml version="1.0" encoding="UTF-8"?>
<svg width="17px" height="17px" viewBox="0 0 17 17" version="1.1" xmlns="http://www.w3.org/2000/svg" xmlns:xlink="http://www.w3.org/1999/xlink">
    <!-- Generator: Sketch 63.1 (92452) - https://sketch.com -->
    <title>交易所</title>
    <desc>Created with Sketch.</desc>
    <g id="页面-1" stroke="none" stroke-width="1" fill="none" fill-rule="evenodd">
        <g id="交易所" transform="translate(-49.000000, -259.000000)" fill="#1A1A1A" fill-rule="nonzero" stroke="#1A1A1A" stroke-width="0.1">
            <g id="sidemenu" transform="translate(0.000000, 130.000000)">
                <g id="item" transform="translate(50.000000, 130.000000)">
                    <g id="交易所">
                        <path d="M15.360805,6.980125 C15.236325,6.980125 15.111205,6.940125 15.005605,6.857245 L7.938725,1.313565 L0.934565,6.855965 C0.685285,7.053405 0.322725,7.011165 0.125605,6.761565 C-0.071515,6.511965 -0.029595,6.149725 0.220005,5.952605 L7.580005,0.128605 C7.788645,-0.036515 8.083365,-0.037155 8.292965,0.127005 L15.716965,5.951005 C15.967205,6.147485 16.011045,6.509405 15.814565,6.759645 C15.700645,6.904605 15.531685,6.980125 15.360805,6.980125 Z" id="路径"></path>
                        <path d="M13.329125,15.508125 L2.481125,15.508125 C2.328165,15.508125 2.180965,15.447005 2.073125,15.338525 C1.907365,15.172125 1.903525,14.991325 1.900005,14.832285 C1.898405,14.759325 1.897125,14.653405 1.896165,14.519325 C1.894245,14.269725 1.892645,13.904605 1.892005,13.434525 C1.890725,12.644125 1.89135262,11.544925 1.893605,10.167005 C1.897125,7.821725 1.905125,5.449885 1.905125,5.426205 C1.906085,5.108765 2.164005,4.852125 2.481125,4.852125 L2.483045,4.852125 C2.801125,4.853085 3.058085,5.111965 3.057125,5.430045 C3.046885,8.471325 3.037605,12.844445 3.046565,14.356125 L12.753125,14.356125 L12.753125,7.412125 C12.753125,7.094045 13.011045,6.836125 13.329125,6.836125 C13.647205,6.836125 13.905125,7.094045 13.905125,7.412125 L13.905125,14.932125 C13.905125,15.250205 13.647205,15.508125 13.329125,15.508125 Z" id="路径"></path>
                        <path d="M4.657765,8.084125 C4.474725,8.084125 4.294565,7.997085 4.182885,7.834525 C4.002405,7.572445 4.068645,7.213725 4.330725,7.033565 L6.794725,5.337565 C7.025445,5.178845 7.337125,5.208925 7.532965,5.409245 L8.625765,6.525725 L10.616165,4.800925 C10.856485,4.592605 11.220325,4.618525 11.428645,4.858845 C11.636965,5.099165 11.611045,5.463005 11.370725,5.671325 L8.970725,7.751325 C8.740645,7.950685 8.394725,7.936605 8.181925,7.719005 L7.048805,6.561245 L4.984165,7.982365 C4.88819819,8.04859252 4.77436565,8.08408149 4.657765,8.084125 L4.657765,8.084125 Z M5.553125,13.588125 C5.235045,13.588125 4.977125,13.330205 4.977125,13.012125 L4.977125,9.652125 C4.977125,9.334045 5.235045,9.076125 5.553125,9.076125 C5.871205,9.076125 6.129125,9.334045 6.129125,9.652125 L6.129125,13.012125 C6.129125,13.330205 5.871205,13.588125 5.553125,13.588125 Z M7.953125,13.588125 C7.635045,13.588125 7.377125,13.330205 7.377125,13.012125 L7.377125,9.652125 C7.377125,9.334045 7.635045,9.076125 7.953125,9.076125 C8.271205,9.076125 8.529125,9.334045 8.529125,9.652125 L8.529125,13.012125 C8.529125,13.330205 8.271205,13.588125 7.953125,13.588125 Z M10.481125,13.588125 C10.163045,13.588125 9.905125,13.330205 9.905125,13.012125 L9.905125,8.692125 C9.905125,8.374045 10.163045,8.116125 10.481125,8.116125 C10.799205,8.116125 11.057125,8.374045 11.057125,8.692125 L11.057125,13.012125 C11.057125,13.330205 10.799205,13.588125 10.481125,13.588125 L10.481125,13.588125 Z" id="形状"></path>
                    </g>
                </g>
            </g>
        </g>
    </g>
</svg>