<?xml version="1.0" encoding="UTF-8"?>
<svg width="76px" height="76px" viewBox="0 0 76 76" version="1.1" xmlns="http://www.w3.org/2000/svg" xmlns:xlink="http://www.w3.org/1999/xlink">
    <!-- Generator: Sketch 63.1 (92452) - https://sketch.com -->
    <title>编组 11</title>
    <desc>Created with Sketch.</desc>
    <defs>
        <circle id="path-1" cx="38" cy="38" r="38"></circle>
    </defs>
    <g id="页面-1" stroke="none" stroke-width="1" fill="none" fill-rule="evenodd">
        <g id="首页" transform="translate(-130.000000, -2952.000000)">
            <g id="编组-14" transform="translate(130.000000, 2472.000000)">
                <g id="编组-11" transform="translate(0.000000, 480.000000)">
                    <g id="椭圆形-2">
                        <mask id="mask-2" fill="white">
                            <use xlink:href="#path-1"></use>
                        </mask>
                        <use id="椭圆形" fill="#E1EFFF" xlink:href="#path-1"></use>
                        <g id="交易系统填充" mask="url(#mask-2)" fill="#000000" fill-rule="nonzero">
                            <g transform="translate(22.000000, 24.000000)" id="形状">
                                <path d="M22.1492639,25.6386667 L9.24593057,25.6386667 C8.61739819,25.6709417 8.12433534,26.1899728 8.12433534,26.8193333 C8.12433534,27.4486938 8.61739819,27.967725 9.24593057,28 L22.1492639,28 C22.8013281,28 23.3299306,27.4713975 23.3299306,26.8193333 C23.3299306,26.1672691 22.8013281,25.6386667 22.1492639,25.6386667 L22.1492639,25.6386667 Z M29.5381528,0.00291701704 L3.63659723,0.00291701704 C1.26468488,0.00291701704 -0.00228740599,1.60038096 0.0121527656,3.64 L0.0121527656,18.2031111 C-0.00681146665,20.5839685 1.68274444,21.8433481 3.63815277,21.841578 L27.4754861,21.841578 C29.5381528,21.8434464 31.1163547,20.0697778 31.1014861,18.2031111 L31.1014861,3.64 C31.1014861,2.26097829 30.5910733,0.000462747763 27.6699306,0.00291701704 L29.5381528,0.00291701704 Z M9.3672639,6.67644443 L13.864375,3.1391111 C14.0588194,2.94155553 14.4508194,3.1391111 14.4508194,3.53266667 L14.4508194,5.89244443 L18.1654861,5.89244443 C20.4839246,5.65094371 22.5697138,7.30809872 22.8585972,9.6211111 C22.8585972,9.81866667 22.6641528,9.81866667 22.4697083,9.81866667 C21.8043281,8.87276188 20.6887748,8.34870023 19.5359306,8.44044443 L14.4508194,8.44044443 L14.4508194,10.612 C14.4508194,11.0055556 14.0619305,11.2015556 13.864375,11.0055556 L9.370375,7.26444443 C9.174375,7.26444443 9.174375,7.06844443 9.174375,6.8708889 C9.174375,6.6748889 9.174375,6.6748889 9.36881943,6.6748889 L9.3672639,6.67644443 Z M22.6641528,13.9533333 L18.1685972,17.4906667 C17.9725972,17.6866667 17.5805972,17.4906667 17.5805972,17.0971111 L17.5805972,14.9333333 L13.864375,14.9333333 C11.5421871,15.1744923 9.4547441,13.51118 9.1712639,11.1937778 C9.1712639,10.9977778 9.36570833,10.9977778 9.56015277,10.9977778 C10.225533,11.9436826 11.3410864,12.4677442 12.4939306,12.376 L17.5774861,12.376 L17.5774861,10.2106667 C17.5774861,9.81866667 17.966375,9.6211111 18.1639306,9.81866667 L22.6610417,13.3544444 C22.8585972,13.5613333 22.8585972,13.9533333 22.6641528,13.9533333 Z"></path>
                            </g>
                        </g>
                    </g>
                </g>
            </g>
        </g>
    </g>
</svg>