<?xml version="1.0" encoding="UTF-8"?>
<svg width="76px" height="76px" viewBox="0 0 76 76" version="1.1" xmlns="http://www.w3.org/2000/svg" xmlns:xlink="http://www.w3.org/1999/xlink">
    <!-- Generator: Sketch 63.1 (92452) - https://sketch.com -->
    <title>编组 11</title>
    <desc>Created with Sketch.</desc>
    <defs>
        <linearGradient x1="17.6772402%" y1="11.1732675%" x2="80.7900254%" y2="90.1844859%" id="linearGradient-1">
            <stop stop-color="#F8D0E4" offset="0%"></stop>
            <stop stop-color="#EFE9F9" offset="42.9127533%"></stop>
            <stop stop-color="#D1E0FE" offset="100%"></stop>
        </linearGradient>
        <circle id="path-2" cx="38" cy="38" r="38"></circle>
    </defs>
    <g id="页面-1" stroke="none" stroke-width="1" fill="none" fill-rule="evenodd">
        <g id="首页" transform="translate(-130.000000, -2593.000000)">
            <g id="编组-14" transform="translate(130.000000, 2472.000000)">
                <g id="编组-11" transform="translate(0.000000, 121.000000)">
                    <g id="椭圆形-2">
                        <mask id="mask-3" fill="white">
                            <use xlink:href="#path-2"></use>
                        </mask>
                        <g id="椭圆形">
                            <use fill="url(#linearGradient-1)" xlink:href="#path-2"></use>
                            <use fill="#E1EFFF" xlink:href="#path-2"></use>
                        </g>
                    </g>
                    <g id="交易策略" transform="translate(23.000000, 23.000000)" fill="#000000" fill-rule="nonzero">
                        <path d="M24.3863413,2.47965265 C25.1156997,1.77586982 26.2745275,1.78648229 26.9908742,2.50350479 C27.7072209,3.22052729 27.7167406,4.37936456 27.0122703,5.10805894 L18.5523199,13.5655321 C17.8267834,14.2908495 16.6506887,14.2908495 15.9251523,13.5655321 L12.7269689,10.3673488 C12.2441037,9.88394369 11.4609943,9.88283525 10.9767625,10.3648715 L3.17329427,18.1386122 C2.49883034,18.8108755 1.4252816,18.8643657 0.687332257,18.2624768 L0.546126637,18.1336576 C-0.176998789,17.406897 -0.174781536,16.2317553 0.55108123,15.5077286 L9.6799004,6.41235291 L10.5444751,5.55149411 C11.2705528,4.82768574 12.4456934,4.82879436 13.1704041,5.5539714 L14.0312629,6.4173075 L16.3611555,8.74596151 C16.845466,9.23027201 17.6295288,9.23027201 18.1138393,8.74720014 L24.3863413,2.47965265 L24.3863413,2.47965265 Z" id="路径"></path>
                        <path d="M29.6827906,0.00483745672 L22.5073158,0.00483745672 C22.256479,0.00438965084 22.0301417,0.155287911 21.9340899,0.387006134 C21.8380381,0.618724357 21.891242,0.885498003 22.0688351,1.06264192 L28.6249871,7.61755522 C28.8019719,7.79498801 29.0684445,7.8482701 29.3000499,7.75253627 C29.5316552,7.65680244 29.6827906,7.43092454 29.6827906,7.18031328 L29.6827906,0.00483745672 L29.6827906,0.00483745672 Z" id="路径"></path>
                        <path d="M29.8760193,12.9363 L29.8760193,25.1245742 C29.8760193,27.1768297 28.2123375,28.8405114 26.1600821,28.8405114 L3.84464029,28.8405114 C2.24436462,28.8405114 0.946893122,27.5435946 0.946209233,25.9433191 L0.946209233,24.14976 C0.946209233,23.4471249 1.24487309,22.7776053 1.76743136,22.3078938 L11.1662753,13.8640457 C11.6560195,13.4244571 12.4040184,13.4445851 12.8694132,13.9098756 L15.3714776,16.41194 C16.3277142,17.3681455 17.8740909,17.3808252 18.8458789,16.4404289 L25.6336576,9.87189048 C25.8824772,9.63150106 26.220496,9.50613225 26.5658918,9.52613133 C26.9112877,9.54613041 27.2325778,9.70967448 27.4519896,9.97717539 L29.8772579,12.9363 L29.8760193,12.9363 Z" id="路径"></path>
                    </g>
                </g>
            </g>
        </g>
    </g>
</svg>