<?xml version="1.0" encoding="UTF-8"?>
<svg width="32px" height="32px" viewBox="0 0 32 32" version="1.1" xmlns="http://www.w3.org/2000/svg" xmlns:xlink="http://www.w3.org/1999/xlink">
    <!-- Generator: Sketch 63.1 (92452) - https://sketch.com -->
    <title>telegram</title>
    <desc>Created with Sketch.</desc>
    <g id="页面-1" stroke="none" stroke-width="1" fill="none" fill-rule="evenodd">
        <g id="首页" transform="translate(-1301.000000, -3907.000000)" fill-rule="nonzero">
            <g id="编组-12" transform="translate(50.000000, 3903.000000)">
                <g id="编组-7">
                    <g id="telegram" transform="translate(1251.000000, 4.000000)">
                        <path d="M32,16 C32,24.8388438 24.8388437,32 16,32 C7.16115625,32 0,24.8388437 0,16 C0,7.16115625 7.16115625,0 16,0 C24.8388437,0 32,7.16115625 32,16 Z" id="路径" fill="#E7E7E7"></path>
                        <g id="twitter" transform="translate(7.314286, 9.142857)" fill="#06060B">
                            <path d="M17.1779141,1.65592617 C16.5468887,1.92813322 15.8601846,2.1240398 15.1528587,2.20034026 C15.8828685,1.76522143 16.4375934,1.0785173 16.6994896,0.26189617 C16.0251585,0.664020209 15.2621539,0.958911172 14.4682167,1.11151209 C13.8248183,0.42480796 12.9112749,0 11.8987472,0 C9.94999227,0 8.3827396,1.57962572 8.3827396,3.5180698 C8.3827396,3.79027685 8.41573439,4.06248389 8.46935093,4.32438006 C5.55137392,4.17177914 2.94890963,2.77774914 1.21874517,0.643398464 C0.913543331,1.1671908 0.740320668,1.76522143 0.740320668,2.41893076 C0.740320668,3.6397381 1.36103521,4.71619323 2.30757334,5.34928082 C1.73016446,5.3265969 1.18575037,5.16368511 0.717636748,4.90178894 L0.717636748,4.9450946 C0.717636748,6.65463732 1.92607104,8.07135124 3.53662938,8.39717482 C3.24173841,8.47347528 2.92622571,8.51678095 2.610713,8.51678095 C2.38181162,8.51678095 2.16528329,8.49409703 1.94669279,8.46316441 C2.39212249,9.85719441 3.68923029,10.8697221 5.23379904,10.9027169 C4.02536475,11.849255 2.51172862,12.4060422 0.868175491,12.4060422 C0.573284529,12.4060422 0.301077486,12.3957313 0.0185595711,12.3627365 C1.57756354,13.3628912 3.42733412,13.9403 5.41939475,13.9403 C11.8863742,13.9403 15.4250657,8.58277053 15.4250657,3.93256689 C15.4250657,3.77996597 15.4250657,3.62736506 15.4147549,3.47476414 C16.0993968,2.97365572 16.6994896,2.35294118 17.1779141,1.65592617 Z" id="路径"></path>
                        </g>
                    </g>
                </g>
            </g>
        </g>
    </g>
</svg>